<svg width="326" height="312" viewBox="0 0 326 312" fill="none" xmlns="http://www.w3.org/2000/svg">
<path fill-rule="evenodd" clip-rule="evenodd" d="M140.585 3.077C139.161 4.769 137.996 7.209 137.996 8.5C137.996 12.377 142.623 17 146.503 17C151.209 17 152.861 16.162 154.533 12.928C157.978 6.266 154.39 0 147.13 0C143.94 0 142.673 0.596004 140.585 3.077ZM115.659 8.63C99.3011 12.139 79.5291 20.49 65.9961 29.607C55.0741 36.965 55.5041 36.471 57.6011 39.252L59.4031 41.64L68.9491 35.152C84.2371 24.763 101.121 17.716 119.068 14.232C127.712 12.554 127.989 12.415 127.993 9.75C127.997 6.478 126.377 6.33 115.659 8.63ZM165.996 10C165.996 12.444 166.413 13 168.246 13.001C172.641 13.004 191.221 18.046 199.793 21.562C211.48 26.357 224.827 33.989 234.246 41.264C241.577 46.926 241.996 47.462 241.996 51.17C241.996 61.566 255.854 63.502 259.374 53.597C261.41 47.868 254.948 41.224 248.513 42.431C246.146 42.875 244.899 42.584 243.884 41.351C238.726 35.081 216.863 21.845 201.804 15.876C191.593 11.828 173.621 7.004 168.746 7.001C166.357 7 165.996 7.394 165.996 10ZM120.996 25.976C99.0421 30.583 79.2611 40.286 62.1861 54.825L56.8751 59.346L60.464 62.923C62.688 65.139 64.3271 66.097 64.7741 65.442C66.8331 62.423 79.6251 52.797 87.5151 48.329C102.46 39.866 117.879 34.817 133.246 33.355L139.996 32.713V28.356V24L134.746 24.096C131.859 24.149 125.671 24.995 120.996 25.976ZM153.996 28.208V32.713L160.837 33.349C176.601 34.814 194.651 41.009 209.903 50.187L218.334 55.262L221.08 51.897C222.59 50.047 223.611 48.187 223.35 47.763C222.305 46.074 203.822 35.87 196.48 32.93C185.958 28.717 171.182 25.05 161.746 24.311L153.996 23.704V28.208ZM38.0731 44.589C35.4761 46.774 34.9961 47.88 34.9961 51.678C34.9961 55.664 34.2521 57.167 28.4841 64.839C20.0541 76.053 11.016 93.923 6.56304 108.182C3.02904 119.498 0.00805275 135.184 5.2747e-05 142.25C-0.00394725 145.718 0.213065 146 2.88106 146C5.64806 146 5.79306 145.765 6.44006 140.25C9.69806 112.482 18.688 88.801 33.663 68.542C39.43 60.74 40.0661 60.2 43.4741 60.2C52.6571 60.2 56.0261 47.652 47.9621 43.483C43.8861 41.375 41.5871 41.632 38.0731 44.589ZM131.496 50.559C123.401 55.389 116.797 58.703 115.838 58.418C114.878 58.132 108.026 61.582 99.564 66.612L84.947 75.301L85.4151 88.236C85.8461 100.107 85.7451 101.113 84.1901 100.463C77.2511 97.56 78.3591 97.249 62.2551 106.626L47.0131 115.5L47.0051 133.122L46.9961 150.744L33.2461 151.215C18.6951 151.715 14.6501 152.738 8.40307 157.503C0.316068 163.671 -2.31594 177.35 2.36706 188.874C16.1991 222.915 51.928 251.365 95.425 262.973C109.164 266.64 120.158 267.994 136.225 267.997C150.647 268 152.6 268.221 159.725 270.665C166.132 272.862 169.367 273.345 178.156 273.415C184.019 273.462 189.111 273.208 189.471 272.851C189.832 272.494 188.747 269.47 187.061 266.13C185.375 262.79 183.996 259.877 183.996 259.658C183.996 259.439 189.509 256.536 196.246 253.208C207.832 247.486 222.996 237.78 222.996 236.087C222.996 235.66 222.139 234.535 221.092 233.587C219.276 231.943 218.968 232.022 214.342 235.328C206.861 240.674 199.294 244.968 189.996 249.144L181.496 252.962L180.291 250.231C178.453 246.065 178.727 245.218 182.154 244.465C187.259 243.344 203.033 236.488 209.846 232.43L216.147 228.676L202.179 214.588C187.648 199.931 185.996 197.792 185.996 193.625C185.996 192.246 185.525 190.827 184.95 190.472C184.375 190.116 180.437 191.617 176.2 193.807C165.044 199.574 156.326 201.422 143.717 200.694C131.192 199.971 123.791 197.816 114.709 192.249C112.626 190.973 110.419 190.239 109.804 190.618C109.182 191.003 108.964 190.861 109.312 190.298C110.105 189.014 102.268 182.649 99.6571 182.457C98.5791 182.377 97.1581 181.574 96.4981 180.672C95.8381 179.769 94.944 179.362 94.512 179.766C94.079 180.169 94.2571 179.478 94.9071 178.229C96.3071 175.54 95.6611 174.074 93.2421 174.448C92.2821 174.596 90.337 173.518 88.921 172.051C87.504 170.584 85.704 169.556 84.921 169.767C84.137 169.978 84.9231 169.194 86.6681 168.026L89.84 165.902L87.9541 161.639C84.7091 154.303 82.9961 145.89 82.9961 137.29C82.9961 132.73 82.765 129 82.482 129C82.2 129 81.1601 129.505 80.1721 130.122C78.6801 131.054 76.4701 130.1 67.1421 124.499C60.9641 120.789 56.163 117.5 56.473 117.19C56.783 116.88 61.8581 113.813 67.7511 110.374L78.465 104.122L83.503 107.004L88.5411 109.887L91.4881 104.258C93.1091 101.163 97.4461 95.619 101.126 91.939L107.818 85.247L100.93 81.373C97.142 79.243 94.0561 77.275 94.0731 77C94.0901 76.725 98.804 73.738 104.55 70.363L114.996 64.226V72.63V81.034L120.015 78.49C122.776 77.091 128.411 75.171 132.538 74.223L140.04 72.5L131.585 67.517C126.934 64.776 123.221 62.441 123.334 62.329C123.446 62.217 128.84 59.003 135.32 55.187L147.103 48.249L157.8 54.575C163.683 58.055 169.098 61.265 169.835 61.708C170.763 62.268 168.525 64.044 162.529 67.507L153.885 72.5L161.421 74.223C165.566 75.171 171.216 77.091 173.977 78.49L178.996 81.034V72.588V64.142L189.423 70.284C195.158 73.663 199.658 76.738 199.422 77.119C199.187 77.5 196.079 79.517 192.515 81.602L186.036 85.392L191.266 90.072C194.143 92.647 198.071 97.278 199.996 100.364C202.223 103.933 204.181 105.979 205.38 105.987C207.596 106.002 226.033 117.13 225.438 118.093C225.215 118.455 221.874 120.627 218.014 122.92L210.996 127.089V136.231C210.996 147.187 208.964 156.077 204.33 165.402C201.854 170.383 201.202 172.606 201.989 173.393C202.776 174.18 203.276 174.177 203.788 173.381C204.177 172.775 205.946 171.536 207.719 170.628C210.512 169.197 210.864 169.18 210.357 170.501C210.036 171.339 210.385 172.781 211.134 173.705C212.303 175.145 212.283 175.279 210.996 174.646C210.171 174.24 210.621 174.683 211.996 175.631C213.371 176.578 222.157 185.211 231.521 194.815L248.547 212.276L251.878 208.481C263.82 194.881 276.224 167.758 281.412 143.905C283.3 135.223 286.15 131.506 293.193 128.539C303.958 124.005 308.218 121.606 312.766 117.517C323.271 108.072 328.086 91.877 324.322 78.645C323.858 77.013 323.358 77.216 320.145 80.341C315.093 85.256 308.672 87.951 301.956 87.978C291.985 88.018 280.354 92.248 276.089 97.387C274.838 98.896 274.507 98.745 272.461 95.733C269.167 90.887 263.372 87.292 255.996 85.52C243.831 82.599 241.544 81.785 237.313 78.874C234.988 77.274 232.377 74.96 231.512 73.733C230.176 71.836 229.796 71.726 228.983 73C225.752 78.064 226.457 94.972 230.244 103.236C233.391 110.102 240.303 117.234 248.491 122.059C256.977 127.061 257.135 130.292 249.319 138.986C244.815 143.995 238.166 149 236.016 149C235.364 149 234.992 142.96 234.984 132.25L234.972 115.5L221.996 108L209.02 100.5L209.008 87.78L208.996 75.06L194.434 66.447C185.992 61.453 179.242 58.075 178.371 58.409C177.502 58.743 170.831 55.413 162.512 50.493C154.616 45.822 147.556 42.046 146.825 42.103C146.094 42.16 139.196 45.965 131.496 50.559ZM226.399 56.538L223.701 60.076L225.725 61.962C226.968 63.12 228.106 63.49 228.676 62.92C229.246 62.35 231.896 64.367 235.55 68.151C241.24 74.044 247.463 77.931 251.281 77.978C252.773 77.996 252.886 77.662 251.969 75.949C250.58 73.353 231.025 53 229.92 53C229.468 53 227.883 54.592 226.399 56.538ZM261.896 64.88L259.575 66.759L262.1 70.13C263.489 71.983 266.262 76.223 268.263 79.551C270.263 82.88 272.835 86.449 273.979 87.484C275.86 89.187 276.207 89.218 277.613 87.812C279.019 86.405 278.955 85.839 276.938 81.878C274.665 77.412 265.227 63 264.576 63C264.379 63 263.173 63.846 261.896 64.88ZM47.822 69.25C41.578 77.023 36.6881 84.17 33.3731 90.368L30.0951 96.5L34.2521 98.626L38.4101 100.752L42.865 93.126C47.778 84.719 53.786 76.249 56.344 74.126C57.252 73.372 57.9961 72.32 57.9961 71.788C57.9961 70.701 52.851 65 51.87 65C51.522 65 49.7 66.912 47.822 69.25ZM134.723 79.535C106.786 85.092 86.669 111.273 88.262 140C89.748 166.789 109.131 188.966 135.996 194.615C149.909 197.541 167.057 194.131 179.194 186.026L184.937 182.192L188.393 186.018C190.7 188.572 191.679 190.496 191.337 191.805C190.418 195.318 193.568 199.229 212.169 217.668C227.488 232.855 231.104 235.949 234.203 236.522C242.375 238.031 250.027 230.379 248.518 222.207C247.946 219.111 244.839 215.475 229.664 200.139C212.093 182.381 206.914 178.327 203.481 179.644C202.411 180.055 200.555 178.998 198.048 176.551L194.242 172.834L197.655 167.167C211.49 144.197 207.668 114.353 188.457 95.342C174.029 81.066 155.069 75.488 134.723 79.535ZM234.425 87.056C234.425 88.047 234.666 88.793 234.96 88.714C235.255 88.635 237.296 89.718 239.496 91.121C241.696 92.523 247.211 94.643 251.752 95.83C261.491 98.377 265.927 101.04 269.429 106.441C272.404 111.029 272.633 110.772 270.382 105.372C266.617 96.342 261.954 92.926 249.986 90.431C246.252 89.652 241.224 88.169 238.811 87.135C234.615 85.337 234.425 85.333 234.425 87.056ZM135.63 87.586C121.919 90.905 108.983 101.107 102.745 113.521C98.128 122.71 96.606 129.918 97.232 139.641C99.52 175.2 136.823 197.024 168.701 181.454C190.499 170.808 201.454 147.101 195.414 123.644C190.716 105.399 173.648 89.937 154.996 87.029C146.654 85.728 142.857 85.837 135.63 87.586ZM138.065 97.327C131.465 101.196 130.674 101.985 130.59 104.779C130.5 107.778 130.585 107.845 132.707 106.454C133.923 105.657 137.748 103.46 141.207 101.571L147.496 98.137L161.363 106.485C168.99 111.077 175.643 115.247 176.147 115.751C176.703 116.307 171.181 120.065 162.118 125.298L147.171 133.929L132.334 125.458C124.173 120.799 117.388 116.653 117.257 116.244C117.125 115.835 118.7 114.486 120.757 113.246L124.496 110.993L119.996 111.53C116.761 111.916 115.918 111.781 116.996 111.049C119.858 109.106 116.475 110.045 112.496 112.298L108.496 114.562L108.231 136.531L107.965 158.5L115.731 163.143C134.785 174.535 146.092 181 146.962 181C147.48 181 156.474 176.015 166.95 169.923L185.996 158.846V136.618V114.39L178.746 110.281C174.759 108.022 166.321 103.211 159.996 99.591C153.671 95.971 147.81 93.007 146.971 93.005C146.133 93.002 142.125 94.947 138.065 97.327ZM25.4481 107.461C22.8431 113.695 18.9751 130.345 18.3491 138.018L17.7351 145.535L22.3191 145.171L26.9031 144.806L27.516 140.153C28.708 131.112 30.1551 124.413 32.5621 116.796C33.9011 112.558 34.9961 108.704 34.9961 108.231C34.9961 107.474 28.7691 104 27.4111 104C27.1271 104 26.2431 105.558 25.4481 107.461ZM139.663 109.667C139.296 110.033 138.996 111.293 138.996 112.467C138.996 113.64 138.437 115.159 137.754 115.842C136.83 116.766 136.807 117.265 137.664 117.795C138.297 118.186 138.969 119.851 139.156 121.495C139.373 123.401 140.144 124.606 141.285 124.822C142.799 125.109 142.957 124.725 142.309 122.331C141.343 118.758 141.336 115.266 142.289 111.75C142.834 109.738 142.671 109 141.682 109C140.938 109 140.029 109.3 139.663 109.667ZM150.782 110.242C152.264 112.028 152.643 117.436 151.593 121.843C150.895 124.772 151.025 125.142 152.646 124.834C153.852 124.605 154.614 123.442 154.836 121.495C155.023 119.851 155.669 118.202 156.272 117.829C157.063 117.341 157.064 116.784 156.278 115.826C155.678 115.097 155.032 113.375 154.842 112C154.597 110.232 153.778 109.399 152.044 109.154C150.012 108.867 149.796 109.054 150.782 110.242ZM70.762 112.419C69.808 113.122 69.358 114.062 69.762 114.508C70.165 114.954 69.7081 115.036 68.7461 114.691C67.4261 114.217 66.979 114.608 66.926 116.281C66.869 118.062 66.721 118.169 66.176 116.826C65.593 115.39 65.1581 115.333 63.1291 116.424C60.9151 117.613 61.4661 118.65 64.3841 118.787C64.8731 118.81 65.653 119.43 66.119 120.165C66.782 121.211 66.969 121.222 66.981 120.216C66.989 119.51 68.3781 117.582 70.0671 115.93C73.2671 112.802 73.783 110.19 70.762 112.419ZM214.498 114.997C214.157 115.549 214.41 116 215.059 116C215.952 116 215.96 116.338 215.093 117.383C213.503 119.299 216.433 120.372 219.204 118.889C220.871 117.996 221.001 117.608 219.881 116.859C216.23 114.418 215.098 114.026 214.498 114.997ZM68.4271 120.112C67.7371 121.229 69.6301 122.982 71.4961 122.954C72.0461 122.946 71.6551 122.45 70.6261 121.853C69.1161 120.976 69.0201 120.599 70.1261 119.898C71.0331 119.324 71.093 119.025 70.305 119.015C69.65 119.007 68.8051 119.5 68.4271 120.112ZM114.223 138.242L114.496 155.414L128.877 163.707C136.787 168.268 143.425 172 143.627 172C143.83 172 143.996 164.612 143.996 155.581V139.163L128.973 130.117L113.949 121.071L114.223 138.242ZM173.996 124.885C171.521 126.458 165.108 130.293 159.746 133.406L149.996 139.065V155.533C149.996 164.59 150.333 171.963 150.746 171.918C151.159 171.873 157.796 168.158 165.496 163.663L179.496 155.491L179.77 138.745C179.921 129.535 179.696 122.005 179.27 122.012C178.844 122.018 176.471 123.311 173.996 124.885ZM257.787 138.73C252.113 147.279 243.295 153.89 233.496 156.939C228.448 158.51 215.381 165.282 213.212 167.451C212.859 167.803 214.579 167.799 217.034 167.442C238.311 164.344 250.778 156.026 259.429 139.157C261.83 134.476 260.789 134.205 257.787 138.73ZM289.522 138.95C288.362 141.194 287.996 145.347 287.996 156.281C287.996 187.606 278.745 216.201 260.601 240.957C255.066 248.509 254.48 249 250.997 249C242.871 249 238.732 258.827 244.451 264.545C247.855 267.949 253.712 267.919 257.424 264.479C259.739 262.334 260.102 261.274 259.862 257.367C259.622 253.469 260.048 252.219 262.686 249.077C269.65 240.782 280.047 222.555 285.039 209.892C291.945 192.371 295.605 167.565 294.356 146.75C293.663 135.196 292.464 133.261 289.522 138.95ZM121.996 148C121.996 155.867 122.038 156 124.496 156C126.052 156 126.996 155.433 126.996 154.5C126.996 153.675 126.546 153 125.996 153C125.446 153 124.996 150.75 124.996 148C124.996 145.25 125.446 143 125.996 143C126.546 143 126.996 142.325 126.996 141.5C126.996 140.567 126.052 140 124.496 140C122.038 140 121.996 140.133 121.996 148ZM132.996 141.5C132.996 142.325 133.446 143 133.996 143C134.546 143 134.996 145.25 134.996 148C134.996 150.75 134.546 153 133.996 153C133.446 153 132.996 153.675 132.996 154.5C132.996 155.433 133.94 156 135.496 156C137.954 156 137.996 155.867 137.996 148C137.996 140.133 137.954 140 135.496 140C133.94 140 132.996 140.567 132.996 141.5ZM157.603 145.324L153.709 148.618L157.58 151.809C159.71 153.564 161.799 155 162.224 155C163.681 155 162.995 152.628 160.891 150.388L158.786 148.148L160.891 146.833C162.868 145.599 163.885 141.982 162.246 142.015C161.833 142.023 159.744 143.512 157.603 145.324ZM166.376 143.195C165.931 143.914 166.709 145.19 168.328 146.398L171.018 148.407L168.257 150.629C166.119 152.35 165.763 153.124 166.681 154.061C167.605 155.003 168.795 154.535 172.071 151.941L176.275 148.611L172.385 145.32C168.079 141.677 167.451 141.455 166.376 143.195ZM17.9961 159.121C14.8021 160.391 10.2211 164.728 8.40707 168.2C6.29407 172.244 6.55704 177.652 8.89504 178.263C10.375 178.65 10.9281 178.088 11.4031 175.713C12.3111 171.177 16.4841 166.33 20.7351 164.877C23.2521 164.016 30.697 163.576 43.245 163.545C53.558 163.52 61.995 163.447 61.995 163.383C61.996 163.318 60.2061 162.081 58.0171 160.633C54.1051 158.044 53.7581 158.001 37.2671 158.063C28.0431 158.098 19.3711 158.574 17.9961 159.121ZM154.996 165C154.996 165.55 155.446 166 155.996 166C156.546 166 156.996 165.55 156.996 165C156.996 164.45 156.546 164 155.996 164C155.446 164 154.996 164.45 154.996 165ZM93.4961 176C93.1561 176.55 93.3551 177 93.9371 177C94.5191 177 94.9961 176.55 94.9961 176C94.9961 175.45 94.798 175 94.555 175C94.312 175 93.8361 175.45 93.4961 176ZM100.996 183.893C100.996 184.384 101.735 185.069 102.637 185.416C104.01 185.943 104.072 185.796 103.015 184.523C101.575 182.788 100.996 182.607 100.996 183.893ZM8.55505 187.25C11.459 196.663 26.7311 217.662 36.0281 225.026L40.1131 228.261L35.1291 221.675C28.7331 213.225 23.942 204.492 20.352 194.742C17.726 187.608 17.2151 186.905 13.9961 185.998C8.62305 184.483 7.76305 184.681 8.55505 187.25ZM204.608 186.819C203.856 188.036 227.605 211.36 228.828 210.604C229.404 210.248 231.591 211.396 233.686 213.155C235.782 214.915 230.752 209.525 222.509 201.177C208.392 186.882 205.836 184.832 204.608 186.819ZM23.9961 188.441C23.9961 188.739 25.435 192.249 27.193 196.241C38.182 221.194 56.9861 240.452 80.7931 251.133C93.8191 256.978 118.412 261.978 133.996 261.95L141.496 261.937L138.765 259.532C137.034 258.009 134.286 256.926 131.265 256.577C96.8791 252.602 78.633 245.048 59.482 226.857C51.146 218.938 43.3761 207.66 38.4661 196.349L35.059 188.5L29.5281 188.2C26.4851 188.035 23.9961 188.144 23.9961 188.441ZM107.075 189.583C107.123 190.748 107.36 190.985 107.679 190.188C107.968 189.466 107.932 188.603 107.6 188.271C107.268 187.939 107.032 188.529 107.075 189.583ZM268.295 195.421C265.984 199.46 261.785 205.815 258.964 209.543C253.943 216.176 253.83 216.477 253.665 223.657C253.5 230.813 253.539 230.938 255.24 228.747C260.287 222.247 273.744 191.649 272.775 188.876C272.622 188.436 270.605 191.381 268.295 195.421ZM41.9961 189.522C41.9961 191.059 48.3311 203.666 51.5111 208.456C65.8731 230.094 90.5771 244.759 119.886 249.044C124.396 249.704 128.279 250.05 128.515 249.815C128.75 249.579 127.814 247.724 126.433 245.693C124.526 242.885 123.24 242 121.072 242C113.338 242 94.1751 234.596 83.9961 227.674C72.8861 220.12 60.861 205.988 55.646 194.356C54.084 190.872 53.227 190.135 50.146 189.626C45.622 188.878 41.9961 188.831 41.9961 189.522ZM61.9961 193.55C61.9961 194.776 65.5231 200.796 68.9981 205.502C77.0701 216.43 89.7801 226.028 103.113 231.262C110.38 234.115 119.836 236.494 120.654 235.675C120.957 235.373 120.575 233.237 119.806 230.929C118.446 226.849 118.185 226.66 110.397 224.116C99.8401 220.668 93.0091 216.389 82.8621 206.869C74.3481 198.881 61.9961 190.996 61.9961 193.55ZM16.3301 225.584C19.5251 232 30.1271 247.904 32.8591 250.376C34.5611 251.917 34.82 253.005 34.331 256.571C33.797 260.466 34.0501 261.207 36.8671 264.025C39.4601 266.618 40.66 267.105 43.882 266.872C47.293 266.626 48.611 267.268 54.633 272.111C68.535 283.292 81.455 290.779 97.473 296.934C106.391 300.362 107.996 300.618 107.996 298.619C107.996 296.424 102.378 292.712 89.9961 286.725C71.8231 277.939 51.424 263.376 52.508 259.962C53.296 257.479 50.613 251.401 48.146 250.08C47.036 249.486 44.7671 249 43.1041 249C40.5761 249 39.1891 247.894 34.6361 242.25C31.6421 238.538 25.7291 232.125 21.4961 228L13.8 220.5L16.3301 225.584ZM240.996 241.511C238.521 242.198 235.371 242.575 233.996 242.348C232.074 242.03 229.993 243.242 224.996 247.59C221.421 250.701 213.996 256.175 208.496 259.756C194.014 269.184 194.701 268.338 197.257 273.599C198.432 276.02 199.685 278 200.04 278C200.395 278 201.543 277.052 202.591 275.893C203.639 274.735 209.479 270.496 215.568 266.475C221.868 262.314 230.92 255.051 236.568 249.624C242.029 244.378 246.271 240.126 245.996 240.174C245.721 240.222 243.471 240.823 240.996 241.511ZM71.9961 262.665C73.3711 263.753 77.4211 266.39 80.9961 268.525C84.5711 270.66 91.626 275.927 96.675 280.231C107.772 289.691 125.393 301.608 135.398 306.421C148.167 312.562 146.647 312.547 158.194 306.645C170.417 300.397 180.963 293.707 190.161 286.368C199.631 278.813 199.663 278.558 191.046 279.359C184.292 279.986 183.107 280.478 174.139 286.373C168.835 289.859 160.629 294.786 155.903 297.322L147.31 301.934L138.403 297.319C127.504 291.673 116.872 284.663 107.158 276.718C101.263 271.896 98.314 270.269 92.158 268.44C85.464 266.452 78.2571 264.012 71.4961 261.446C69.9431 260.857 70.0541 261.129 71.9961 262.665ZM225.996 274.196C221.321 277.529 212.771 282.528 206.996 285.305C194.639 291.249 185.996 296.738 185.996 298.642C185.996 300.739 188.068 300.322 199.395 295.946C209.895 291.891 226.343 282.678 235.208 275.887L239.92 272.277L237.644 270.139C236.392 268.962 235.171 268.031 234.932 268.069C234.692 268.106 230.671 270.864 225.996 274.196Z" fill="white"/>
</svg>
